<?xml version="1.0" encoding="UTF-8" standalone="no"?>
<!-- Created with Inkscape (http://www.inkscape.org/) -->

<svg
   width="210mm"
   height="297mm"
   viewBox="0 0 210 297"
   version="1.1"
   id="svg5"
   xml:space="preserve"
   inkscape:version="1.2.1 (9c6d41e410, 2022-07-14)"
   sodipodi:docname="logo01.svg"
   xmlns:inkscape="http://www.inkscape.org/namespaces/inkscape"
   xmlns:sodipodi="http://sodipodi.sourceforge.net/DTD/sodipodi-0.dtd"
   xmlns="http://www.w3.org/2000/svg"
   xmlns:svg="http://www.w3.org/2000/svg"><sodipodi:namedview
     id="namedview7"
     pagecolor="#ffffff"
     bordercolor="#000000"
     borderopacity="0.25"
     inkscape:showpageshadow="2"
     inkscape:pageopacity="0.0"
     inkscape:pagecheckerboard="0"
     inkscape:deskcolor="#d1d1d1"
     inkscape:document-units="mm"
     showgrid="false"
     inkscape:zoom="0.74564394"
     inkscape:cx="333.26899"
     inkscape:cy="332.59843"
     inkscape:window-width="1920"
     inkscape:window-height="1017"
     inkscape:window-x="-8"
     inkscape:window-y="-8"
     inkscape:window-maximized="1"
     inkscape:current-layer="layer1" /><defs
     id="defs2" /><g
     inkscape:label="Capa 1"
     inkscape:groupmode="layer"
     id="layer1"><g
       id="g1494"
       transform="translate(9.9354839,30.516129)"><path
         style="fill:#000000;stroke-width:0.13254"
         d="m 95.463768,152.96799 c -0.17385,-0.13254 -4.32398,-2.70434 -9.22252,-5.71512 l -8.90642,-5.47415 -1.02405,-1.87277 c -0.56323,-1.03003 -2.92594,-5.30225 -5.25047,-9.49381 -3.62284,-6.53266 -4.21575,-7.6781 -4.15167,-8.02071 0.1222,-0.65346 -0.1775,-2.56425 -0.60254,-3.84158 -1.42663,-4.28726 -5.30247,-7.3377 -9.80254,-7.71497 -0.50509,-0.0423 -0.9723,-0.14291 -1.03824,-0.22346 -0.0659,-0.0806 -0.9965,-2.44273 -2.06789,-5.24925 -1.07139,-2.80653 -2.06874,-5.386265 -2.21633,-5.732745 l -0.26834,-0.62996 0.28034,-0.89425 c 0.75958,-2.4229 0.59725,-5.31018 -0.44241,-7.86879 -1.12422,-2.76674 -3.80043,-5.41951 -6.47131,-6.41464 -0.66747,-0.24869 -0.91182,-0.52557 -0.83158,-0.94225 0.0264,-0.13734 0.83876,-5.65564 1.80514,-12.262886 l 1.75705,-12.013175 -6.5021,-8.149991 -6.50211,-8.149992 -0.93535,-6.078763 c -0.93299,-6.063397 -0.9362,-6.093673 -1.2696,-11.976774 -0.18384,-3.243905 -0.35761,-6.136581 -0.38615,-6.428168 -0.0408,-0.416522 0.21633,-1.282996 1.19949,-4.042457 0.68827,-1.931763 1.2984,-3.601762 1.35587,-3.711107 0.1123,-0.2136959 0.49128,-0.2685119 3.98234,-0.5760199 l 2.04989,-0.180562 6.69773,3.7249149 6.69773,3.724915 5.55948,5.76547 c 9.95362,10.32241 9.73788,10.107167 10.05714,10.034184 0.15846,-0.03622 1.48097,-0.370647 2.93891,-0.743157 7.88098,-2.013638 15.4474,-2.937923 24.05593,-2.938586 8.750862,-6.86e-4 15.591302,0.835651 24.120792,2.949054 l 3.24581,0.804234 0.86291,-0.920339 c 0.47461,-0.506185 3.91907,-4.083721 7.65437,-7.950078 l 6.79145,-7.029739 6.59504,-3.678345 c 4.59365,-2.562081 6.71571,-3.6775309 6.99267,-3.6756609 1.28218,0.0087 5.58592,0.458063 5.71189,0.596448 0.0799,0.08774 0.57987,1.3822139 1.11111,2.8765979 0.53123,1.494383 1.1022,3.058383 1.26882,3.475556 l 0.30293,0.758495 -0.38287,6.597451 -0.38288,6.597449 -0.92655,6.004226 -0.92654,6.004225 -2.55382,3.207274 c -1.40461,1.763999 -4.32945,5.42987 -6.49966,8.146379 -2.17021,2.716508 -3.94584,4.964646 -3.94584,4.995863 0,0.03122 0.80473,5.552024 1.7883,12.268458 1.29322,8.831016 1.75191,12.279676 1.65689,12.457246 -0.0723,0.13505 -0.26568,0.28583 -0.42977,0.33505 -0.52085,0.15626 -1.8294,0.85099 -2.64113,1.40222 -2.11742,1.43792 -3.99227,4.13923 -4.68044,6.74368 -0.47291,1.78975 -0.40462,4.63716 0.15438,6.43674 l 0.20851,0.67127 -2.1371,5.580985 c -1.1754,3.06954 -2.13709,5.63599 -2.13709,5.70323 0,0.2984 -0.52492,0.53095 -1.36615,0.60524 -4.00059,0.35331 -7.53015,2.83235 -9.23644,6.48736 -0.69804,1.49526 -0.92917,2.4315 -1.0215,4.13777 l -0.0789,1.45794 -5.16108,9.34404 c -2.83859,5.13922 -5.28997,9.45397 -5.44751,9.58833 -0.49202,0.41966 -18.362242,11.35292 -18.556142,11.35292 -0.10109,0 -0.32604,-0.10844 -0.49989,-0.24096 z m -9.67403,-19.89116 c -4.67846,-9.5607 -8.52688,-17.36251 -8.55204,-17.33734 -0.0252,0.0252 0.25542,5.67778 0.62353,12.56138 0.46525,8.70034 0.71726,12.56193 0.82668,12.66751 0.24591,0.23729 15.50675,9.59293 15.56039,9.53929 0.0263,-0.0262 -3.7801,-7.87013 -8.45856,-17.43084 z m 20.093652,12.53319 c 4.15511,-2.55212 7.57044,-4.65065 7.58962,-4.66339 0.0567,-0.0376 1.36831,-24.75989 1.32769,-25.02599 -0.0204,-0.13393 -3.84973,7.56 -8.50954,17.0976 -4.65981,9.53761 -8.499062,17.39179 -8.531662,17.45373 -0.0957,0.18176 0.21215,-0.002 8.123892,-4.86195 z m -10.536902,-6.78273 v -10.53801 l -5.99741,-2.99385 c -3.29858,-1.64661 -6.07197,-3.05502 -6.1631,-3.1298 -0.0911,-0.0748 -0.16567,-0.25596 -0.16567,-0.40264 0,-0.14669 -0.835,-4.30424 -1.85555,-9.239 -1.02056,-4.93476 -1.85556,-9.0531 -1.85556,-9.15188 0,-0.0988 2.35899,-5.773555 5.24219,-12.610615 l 5.24219,-12.43102 -3.30331,-11.804252 c -1.81683,-6.49234 -3.3259,-11.825099 -3.3535,-11.850578 -0.0276,-0.02548 -5.1757,-3.516348 -11.44022,-7.757486 l -11.39003,-7.71116 -0.53853,0.235653 c -0.29619,0.129609 -1.06328,0.556536 -1.70465,0.948724 -5.6094,3.430096 -9.27148,9.541756 -9.5993,16.020278 l -0.0749,1.480795 0.51622,0.138502 c 0.98229,0.263556 7.01206,1.833857 7.37084,1.919549 0.41199,0.0984 0.0504,-0.95723 3.7508,10.951376 1.21184,3.899975 2.2737,7.159779 2.35966,7.243989 0.086,0.0842 3.01917,1.70787 6.51822,3.60811 3.49904,1.90023 6.43083,3.50132 6.51509,3.55797 0.10611,0.0713 0.36133,4.09524 0.83037,13.09189 0.37244,7.143885 0.70674,13.171755 0.74288,13.395265 0.0362,0.22351 4.03668,8.51386 8.89008,18.423 10.17066,20.7653 9.37218,19.1432 9.42336,19.1432 0.0219,0 0.0398,-4.74211 0.0398,-10.53801 z m -12.0611,-59.432975 c -0.10934,-0.063 -2.85291,-1.11432 -6.09682,-2.33625 -3.2439,-1.221924 -5.99333,-2.316677 -6.10984,-2.432784 -0.28711,-0.286137 -7.54173,-13.589396 -7.54173,-13.829753 0,-0.206124 0.40807,-0.629339 0.60686,-0.629383 0.18992,-4.5e-5 13.35671,5.985334 13.5284,6.149759 0.12104,0.115919 5.89783,10.706151 6.64325,12.178661 0.164,0.32397 0.16068,0.40934 -0.027,0.69583 -0.2179,0.33257 -0.63331,0.41701 -1.00309,0.20392 z m -1.96992,-3.621611 c -0.51205,-0.965884 -1.75445,-3.269414 -2.76089,-5.118961 l -1.8299,-3.362812 -5.35931,-2.433285 c -2.94762,-1.338308 -5.38207,-2.410537 -5.40987,-2.382734 -0.0529,0.05285 5.86961,10.933112 6.05118,11.11674 0.0791,0.07996 9.98503,3.898753 10.19596,3.930593 0.0241,0.004 -0.37512,-0.783658 -0.88717,-1.749541 z m 24.569212,55.037056 c 4.93714,-10.0962 9.02409,-18.48146 9.08213,-18.63391 0.0581,-0.15245 0.41274,-6.14655 0.78824,-13.320225 0.3755,-7.17368 0.70875,-13.17327 0.74055,-13.33243 0.0318,-0.15916 0.17167,-0.32551 0.31079,-0.36967 0.37473,-0.11893 12.63997,-6.82046 12.84176,-7.01652 0.095,-0.0923 1.39251,-4.098955 2.88336,-8.903657 1.49085,-4.804705 2.75907,-8.821306 2.81827,-8.925778 0.16886,-0.297997 0.30035,-0.341147 3.66849,-1.203927 1.74952,-0.448156 3.50188,-0.905887 3.89412,-1.01718 l 0.71317,-0.202353 -0.0746,-1.609165 c -0.3074,-6.624968 -4.29203,-12.92365 -10.35887,-16.374653 -0.65301,-0.371453 -1.25237,-0.675368 -1.33191,-0.675368 -0.23769,0 -22.64427,15.212156 -22.88669,15.538109 -0.22265,0.299373 -6.62623,22.987512 -6.63233,23.498582 -0.002,0.14788 2.33936,5.81394 5.20249,12.59126 2.86315,6.77731 5.20579,12.411855 5.20587,12.521195 1.2e-4,0.1488 -3.4715,17.09884 -3.81402,18.62181 -0.0447,0.1989 -1.58316,1.02592 -6.16162,3.31234 l -6.101992,3.04725 v 10.35028 c 0,8.92889 0.0345,10.68543 0.20645,10.49387 0.0163,-0.0182 4.069212,-8.29366 9.006342,-18.38986 z m 1.95733,-51.458485 c -0.0705,-0.0911 -0.1603,-0.25675 -0.19953,-0.36806 -0.0407,-0.11547 1.38753,-2.89231 3.32605,-6.466646 l 3.39738,-6.264281 6.69325,-3.044467 c 4.61742,-2.100264 6.78511,-3.02285 6.98945,-2.974769 0.48817,0.114871 0.51892,0.641226 0.0843,1.442246 -0.20925,0.385614 -1.90116,3.480528 -3.75979,6.877584 l -3.37934,6.176467 -6.31865,2.393806 c -3.47526,1.31658 -6.40555,2.39379 -6.51177,2.39379 -0.10621,0 -0.2508,-0.0746 -0.32131,-0.16567 z m 7.36533,-3.820892 c 2.64968,-1.004899 4.83963,-1.849127 4.86656,-1.876054 0.13876,-0.138751 6.02177,-10.980632 6.02177,-11.097592 0,-0.07557 -0.0324,-0.137392 -0.0721,-0.137392 -0.17655,0 -10.61347,4.799669 -10.74785,4.942657 -0.16212,0.172516 -5.48246,9.982213 -5.48246,10.108623 0,0.11033 0.1305,0.0636 5.41404,-1.940242 z M 76.398018,125.4935 c -0.36729,-6.88067 -0.69728,-12.95763 -0.73331,-13.50435 -0.036,-0.54674 -0.27767,-5.16905 -0.53696,-10.27182 -0.44888,-8.833235 -0.54007,-10.233365 -0.65879,-10.114645 -0.0284,0.0284 -1.42843,7.0114 -3.11109,15.517685 -3.01417,15.23757 -3.05608,15.47235 -2.83763,15.8997 0.2487,0.48652 7.57756,13.753 8.10895,14.67858 0.18733,0.32629 0.3622,0.52843 0.38861,0.44921 0.0264,-0.0792 -0.25249,-5.7737 -0.61978,-12.65436 z m 43.118322,4.82355 c 2.30648,-4.17097 4.19361,-7.66167 4.19361,-7.75713 0,-0.26308 -5.9548,-30.336125 -6.08227,-30.716795 -0.13444,-0.40148 -0.21528,0.43151 -0.41161,4.24127 -0.0733,1.42149 -0.34225,6.520945 -0.59777,11.332135 -0.25552,4.81118 -0.70092,13.22082 -0.98979,18.68808 -0.28886,5.46725 -0.56203,10.44743 -0.60702,11.06705 -0.0715,0.98445 -0.0577,1.1015 0.10971,0.92778 0.10534,-0.10935 2.07865,-3.61142 4.38514,-7.78239 z m -18.73573,-5.53784 4.57262,-2.30506 -9.244642,-0.007 c -5.08455,-0.004 -9.24463,0.0225 -9.24463,0.0587 0,0.10784 8.9289,4.55863 9.14523,4.55862 0.10934,0 2.25648,-1.03727 4.771422,-2.30506 z m -5.500392,-5.01357 v -1.30246 l -4.79792,-2.55383 c -5.28443,-2.81279 -5.40706,-2.90327 -6.15487,-4.54131 -1.08815,-2.38354 -0.63995,-5.05114 1.16692,-6.94546 0.41518,-0.43528 1.061,-0.96656 1.43512,-1.18061 l 0.68023,-0.38919 0.89131,-9.895675 c 0.49021,-5.44261 0.86797,-9.919 0.83945,-9.94752 -0.0285,-0.0285 -1.99517,4.55797 -4.37034,10.19221 l -4.3185,10.244055 1.78599,8.67859 c 0.9823,4.77322 1.81185,8.7538 1.84345,8.84573 0.0453,0.13164 1.21986,0.1598 5.52831,0.13254 l 5.47085,-0.0346 z m 12.441102,1.2647 c 0.0353,-0.0572 0.87669,-4.03876 1.86962,-8.84786 l 1.80531,-8.74382 -4.18126,-9.914625 c -2.29969,-5.45304 -4.27329,-10.07497 -4.38577,-10.27097 -0.20305,-0.3538 -0.20403,-0.35208 -0.13626,0.24007 0.0375,0.32803 0.43069,4.71178 0.87366,9.74166 0.44297,5.02987 0.83018,9.264515 0.86047,9.410315 0.0316,0.15219 0.32451,0.40618 0.68777,0.59643 0.85854,0.44962 2.01638,1.6391 2.45421,2.52128 1.19233,2.4024 0.96291,4.77613 -0.66949,6.92686 -0.44335,0.58412 -0.85885,0.83498 -5.25515,3.17281 -2.625562,1.39619 -4.817562,2.60184 -4.871112,2.67921 -0.12177,0.17594 -0.1333,2.38408 -0.0131,2.50431 0.12558,0.12559 10.883282,0.1102 10.961072,-0.0156 z M 70.761458,103.39031 c 1.57265,-7.973275 2.84076,-14.552675 2.81802,-14.620915 -0.0228,-0.0682 -3.67099,4.52595 -8.1072,10.20928 -4.43622,5.683335 -8.04335,10.382675 -8.01584,10.442975 0.0275,0.0603 0.56852,0.24072 1.20226,0.40092 1.39496,0.35262 3.1567,1.15905 4.26113,1.95051 1.8387,1.31766 3.65656,3.62083 4.41793,5.59735 0.27286,0.70832 0.39999,0.9099 0.46928,0.74412 0.0523,-0.12507 1.38177,-6.75098 2.95442,-14.72424 z m 54.297032,13.24623 c 1.55976,-3.36385 4.90481,-6.06395 8.49166,-6.85439 0.52898,-0.11657 1.00569,-0.25136 1.05936,-0.29954 0.0537,-0.0482 -3.54667,-4.75556 -8.00075,-10.460865 -4.45408,-5.7053 -8.12359,-10.348 -8.15448,-10.31712 -0.042,0.042 4.68865,24.218375 5.67128,28.983715 0.1386,0.67215 0.16061,0.70315 0.28241,0.39763 0.0727,-0.18225 0.36539,-0.83449 0.65052,-1.44943 z M 64.201448,98.470105 c 4.17495,-5.35791 7.65045,-9.81765 7.72333,-9.91054 0.0729,-0.0929 0.0984,-0.20301 0.0567,-0.24473 -0.0774,-0.0774 -18.97429,10.57707 -19.2839,10.87263 -0.15464,0.14763 0.81775,2.860285 3.3028,9.213695 0.12402,0.31708 0.12957,0.31807 0.36811,0.0663 0.13321,-0.14062 3.65806,-4.63942 7.83301,-9.997325 z M 137.7519,103.9705 c 0.95126,-2.47849 1.72962,-4.565995 1.72969,-4.638885 7e-5,-0.0729 -0.64094,-0.49383 -1.42445,-0.9354 -0.78352,-0.44157 -5.13924,-2.90989 -9.67937,-5.48514 -4.54014,-2.57526 -8.28898,-4.64811 -8.33075,-4.60632 -0.0418,0.0418 3.4902,4.64308 7.84885,10.22512 4.35864,5.582045 7.97018,10.103665 8.02563,10.048065 0.0555,-0.0556 0.87913,-2.12895 1.8304,-4.60744 z m -34.71812,-1.57056 c 0,-0.66588 -2.11257,-23.637185 -2.19635,-23.882195 -0.0489,-0.14296 -1.136852,-2.511929 -2.417712,-5.264376 -1.38641,-2.97926 -2.3773,-4.955999 -2.44857,-4.884723 -0.12998,0.129979 -4.64792,9.737429 -4.77829,10.161069 -0.0653,0.21205 -2.20827,23.530195 -2.20827,24.028175 0,0.11436 1.79069,0.15349 7.0246,0.15349 h 7.024592 z M 63.406838,91.544915 c 5.43146,-3.07989 9.89416,-5.65309 9.91711,-5.71823 0.0229,-0.0651 -2.51268,-1.51143 -5.63472,-3.21399 l -5.67644,-3.09555 -2.00301,4.07549 c -1.10166,2.24152 -3.05097,6.20772 -4.33179,8.81378 -1.28083,2.60606 -2.28777,4.7383 -2.23766,4.7383 0.0501,0 4.53505,-2.51991 9.96651,-5.5998 z m 74.890942,4.77142 c -0.20794,-0.4556 -2.15875,-4.42058 -4.33513,-8.81106 l -3.95707,-7.98269 -5.74277,3.13388 c -3.75264,2.04785 -5.68175,3.16963 -5.56666,3.23702 1.78741,1.04666 19.819,11.24602 19.88583,11.24818 0.0516,0.002 -0.0763,-0.36972 -0.2842,-0.82533 z m -81.169142,-9.85546 3.90576,-7.9207 -2.67563,-8.623712 c -1.47159,-4.743038 -2.7127,-8.664318 -2.75802,-8.713957 -0.11542,-0.126427 -7.21083,-1.97072 -7.28736,-1.894189 -0.0422,0.04212 -3.33221,22.118428 -3.46083,23.221998 -0.002,0.0172 0.36913,0.21917 0.82474,0.44889 2.52975,1.27551 4.64165,3.38216 5.89644,5.88178 0.78246,1.55872 1.15676,2.87098 1.43058,5.01551 0.0451,0.35295 0.11268,0.61097 0.15026,0.5734 0.0376,-0.0376 1.82591,-3.63264 3.97406,-7.98902 z m 81.955902,7.38686 c 0,-1.30937 0.55242,-3.28893 1.39162,-4.98675 1.13155,-2.28929 2.96217,-4.21072 5.26815,-5.52949 0.60159,-0.34404 1.17156,-0.67208 1.26661,-0.72897 0.13781,-0.0825 -0.16795,-2.44012 -1.50881,-11.634382 -0.92491,-6.342014 -1.71939,-11.573695 -1.76554,-11.625953 -0.0704,-0.07974 -7.14182,1.691683 -7.2843,1.824753 -0.0262,0.02453 -1.26267,3.93965 -2.74759,8.700275 l -2.69984,8.655687 3.93146,7.97841 c 2.1623,4.38812 3.98023,7.94826 4.03985,7.91141 0.0596,-0.0369 0.10839,-0.29109 0.10839,-0.56499 z M 92.826478,71.829653 c 1.10943,-2.369144 2.09671,-4.4905 2.19399,-4.714124 l 0.17685,-0.406588 -5.01963,-5.018318 c -4.30335,-4.302237 -5.00476,-4.95344 -4.91544,-4.563646 0.3995,1.743601 5.3786,19.194465 5.45328,19.112792 0.0516,-0.05642 1.00153,-2.040972 2.11095,-4.410116 z m 11.404412,-5.483744 c 1.46176,-5.239411 2.63768,-9.546265 2.61316,-9.570787 -0.0245,-0.02452 -2.28773,2.204592 -5.02935,4.953586 l -4.984772,4.998172 2.26643,4.823606 c 1.729672,3.681216 2.291352,4.764161 2.371612,4.572615 0.0579,-0.138047 1.30116,-4.537782 2.76292,-9.777192 z M 90.911908,48.975533 c -2.08058,-8.22009 -3.78287,-14.981527 -3.78287,-15.025413 0,-0.04389 -0.0539,-0.02313 -0.11978,0.04612 -0.0659,0.06925 -0.67357,4.617385 -1.35044,10.106961 l -1.23066,9.98105 5.09468,5.097509 c 2.80208,2.803632 5.11207,5.016935 5.13331,4.918453 0.0213,-0.09848 -1.66366,-6.904588 -3.74424,-15.124678 z m 11.624202,10.164111 c 4.12246,-4.121378 5.00402,-5.066003 5.00402,-5.361964 0,-0.533379 -2.37737,-19.625098 -2.45324,-19.700963 -0.0357,-0.03575 -0.0951,-0.03495 -0.13182,0.0018 -0.0597,0.05965 -7.620492,29.817178 -7.620492,29.992268 0,0.03937 0.0445,0.07158 0.0988,0.07158 0.0543,0 2.35057,-2.251222 5.102772,-5.002715 z m -2.29473,-11.997029 c 2.26479,-8.946759 4.1178,-16.318248 4.1178,-16.381085 0,-0.418751 -8.718282,-0.691184 -13.585312,-0.42452 -1.60373,0.08787 -2.96385,0.206345 -3.02249,0.263283 -0.0937,0.09098 8.01193,32.456227 8.2078,32.773143 0.0421,0.06812 0.0963,0.104095 0.12048,0.07994 0.0241,-0.02416 1.89693,-7.364 4.161722,-16.310761 z m -53.011732,8.020189 c 0.84829,-6.838996 4.76203,-12.819111 10.58065,-16.167001 0.60449,-0.347812 1.1926,-0.696049 1.30691,-0.773859 0.17657,-0.120202 -0.75981,-1.654658 -6.22785,-10.205546 l -6.43567,-10.064073 -5.71854,-3.228398 c -3.15293,-1.779981 -5.76863,-3.177379 -5.83018,-3.114679 -0.0614,0.06255 -0.5703,1.388776 -1.1309,2.947181 l -1.01926,2.833463 0.35571,6.245496 0.35571,6.245497 0.9098,5.928847 0.9098,5.928847 5.86802,7.358243 c 3.22741,4.047034 5.87871,7.358243 5.89177,7.358243 0.013,0 0.0959,-0.581517 0.18403,-1.292261 z M 150.75761,49.279093 c 3.09284,-3.873888 5.72647,-7.228795 5.8525,-7.455349 0.15197,-0.273165 0.52039,-2.33168 1.09373,-6.111118 0.83658,-5.514711 0.87527,-5.883691 1.19522,-11.398402 0.18187,-3.13456 0.33085,-6.012562 0.33108,-6.395559 2.7e-4,-0.535563 -0.23657,-1.354236 -1.02591,-3.545433 -0.56448,-1.566991 -1.07008,-2.849075 -1.12356,-2.849075 -0.20368,0 -11.44302,6.414465 -11.59065,6.614969 -0.23387,0.317608 -12.41126,19.359575 -12.59721,19.698445 -0.15293,0.278678 -0.0986,0.329371 1.06032,0.989206 2.99693,1.706341 5.73834,4.286212 7.56764,7.121683 1.76394,2.734176 3.01792,6.291718 3.34135,9.479423 0.0499,0.492053 0.13158,0.894642 0.18146,0.894642 0.0499,0 2.62119,-3.169544 5.71403,-7.043432 z m -67.472222,3.515509 c 0,-0.117938 0.59643,-5.03736 1.3254,-10.932049 0.72896,-5.894689 1.32539,-10.815892 1.32539,-10.936007 0,-0.257246 -0.30159,-0.234973 -3.97619,0.293633 -3.84483,0.553097 -8.13753,1.448829 -11.8852,2.480019 -0.90393,0.248722 -1.69314,0.399298 -1.79476,0.34243 -0.22713,-0.127109 -1.30667,-1.232401 -9.24286,-9.463325 -3.51432,-3.644837 -6.63837,-6.779912 -6.94234,-6.966832 -0.30396,-0.186919 -3.21374,-1.815391 -6.46617,-3.618827 l -5.91351,-3.278974 -1.04482,0.08137 c -1.31943,0.10276 -1.7111,0.183556 -1.56101,0.322014 0.11258,0.103844 9.12313,5.198856 9.89494,5.595086 0.26561,0.136355 2.21149,3.0755 7.09087,10.710337 l 6.7248,10.522409 11.12196,7.531574 c 6.11707,4.142366 11.1718,7.531575 11.23272,7.531575 0.0609,0 0.11078,-0.0965 0.11078,-0.214435 z m 36.743682,-7.264279 c 6.07438,-4.113292 11.13704,-7.587485 11.25037,-7.720429 0.11332,-0.132942 1.68952,-2.567784 3.50265,-5.410757 1.81314,-2.842973 4.77887,-7.491952 6.59051,-10.331065 l 3.29388,-5.162023 1.23333,-0.669718 c 4.54043,-2.465539 9.18564,-5.183404 8.98312,-5.255937 -0.12374,-0.04432 -0.76178,-0.11845 -1.41785,-0.164732 l -1.19285,-0.08415 -6.44872,3.610407 -6.44872,3.610407 -7.72771,8.018644 c -4.25024,4.410253 -7.81416,8.052581 -7.91982,8.09406 -0.10566,0.04148 -1.03251,-0.157033 -2.05966,-0.441138 -1.02716,-0.284106 -2.67274,-0.685263 -3.65685,-0.89146 -1.91012,-0.400223 -11.73792,-1.827239 -11.8452,-1.719948 -0.0607,0.06069 2.52911,21.481585 2.63936,21.83088 0.0287,0.09112 0.081,0.165674 0.11607,0.165674 0.0351,0 5.03372,-3.365421 11.10809,-7.478715 z"
         id="path179" /><path
         style="fill:#0095ff;fill-opacity:1;stroke-width:0.11854"
         d="m 305.83221,291.14203 c -9.19313,-3.47195 -29.10322,-11.17473 -32.4686,-12.5614 -1.36631,-0.56297 -0.97703,-0.0593 -3.44542,-4.45776 -6.63383,-11.8209 -20.56869,-37.61799 -20.40734,-37.77934 0.16045,-0.16045 13.44431,5.75712 36.69665,16.34729 l 3.72759,1.69771 2.35459,4.32544 c 11.28631,20.73331 18.22485,33.7004 18.22485,34.05954 0,0.0432 -0.04,0.0766 -0.0889,0.0742 -0.0489,-0.002 -2.11593,-0.76998 -4.59341,-1.70565 z"
         id="path897"
         transform="scale(0.26458333)" /><path
         style="fill:#0095ff;fill-opacity:1;stroke-width:0.11854"
         d="m 415.11825,292.64468 c 0.51894,-1.39557 19.65168,-36.63964 20.51362,-37.78778 0.2962,-0.39455 2.67397,-1.55196 13.69255,-6.66503 15.28192,-7.09143 26.84447,-12.29232 27.0482,-12.16641 0.22567,0.13947 0.0502,0.64631 -0.75084,2.1684 -6.98464,13.27238 -21.53328,39.86148 -21.96597,40.14499 -0.60021,0.39327 -32.92559,12.69561 -36.92423,14.05255 -1.54152,0.52312 -1.72435,0.55182 -1.61333,0.25328 z"
         id="path899"
         transform="scale(0.26458333)" /><path
         style="fill:#999999;fill-opacity:1;stroke-width:0.237079"
         d="M 299.89428,190.54502 C 285.43754,180.86723 281.31974,178.0878 247.87217,155.43124 L 229.97852,143.31051 218.27895,124.99809 C 192.46323,84.590708 182.6852,69.512365 179.59319,65.342176 c -0.77796,-1.049241 -1.81763,-2.164367 -2.31036,-2.478058 -0.49273,-0.31369 -4.57653,-2.627173 -9.07511,-5.141073 -13.63624,-7.620215 -27.73827,-15.695086 -27.73827,-15.883026 0,-0.311038 0.96717,-0.465378 5.33428,-0.851243 l 4.26743,-0.377057 19.79611,11.006571 c 29.06752,16.161436 26.61934,14.700112 30.0389,17.930333 3.16517,2.989928 19.93274,20.128296 35.6377,36.425797 5.40307,5.60692 12.65304,13.05678 16.11105,16.55524 l 6.28729,6.36084 1.30393,-0.1567 c 0.71717,-0.0862 3.59768,-0.74495 6.40114,-1.46393 20.03475,-5.13813 34.8449,-8.03836 52.98721,-10.37636 2.97559,-0.38347 5.73346,-0.52308 5.95507,-0.30147 0.14704,0.14704 -0.26792,3.64341 -5.70387,48.05949 -2.14642,17.53794 -3.97485,32.58061 -4.06318,33.42817 -0.0883,0.84756 -0.23187,1.6756 -0.31898,1.8401 -0.10861,0.20512 -4.69878,-2.74041 -14.60925,-9.37478 z"
         id="path1317"
         transform="scale(0.26458333)" /><path
         style="fill:#999999;fill-opacity:1;stroke-width:0.237079"
         d="m 354.0647,238.84775 c -1.74933,-1.62465 -10.30675,-10.04851 -19.0165,-18.71968 l -15.8359,-15.76577 2.62562,-21.21859 c 2.84788,-23.0147 4.57929,-36.69277 5.70197,-45.04505 0.64157,-4.77307 0.84086,-6.14112 1.30728,-8.97397 0.072,-0.43711 0.1838,-0.74178 0.24853,-0.67705 0.18883,0.18883 24.44588,96.59817 27.23221,108.23405 0.60334,2.51961 1.05658,4.70236 1.00718,4.85054 -0.0494,0.14819 -1.52107,-1.05983 -3.27039,-2.68448 z"
         id="path1319"
         transform="scale(0.26458333)" /><path
         style="fill:#999999;fill-opacity:1;stroke-width:0.16764"
         d="m 362.69952,239.24814 c -1.26287,-3.32159 -30.8543,-121.53404 -30.85527,-123.26128 -1.8e-4,-0.3087 0.12679,-0.36964 0.96373,-0.46253 1.77811,-0.19735 6.79921,-0.5855 10.43561,-0.80672 4.89914,-0.29803 30.98063,-0.30008 36.79705,-0.003 8.48585,0.43359 13.06578,0.88742 14.01773,1.38903 0.34069,0.17951 0.41458,-0.12575 -8.8841,36.70042 -15.07984,59.72161 -22.01053,86.83765 -22.19518,86.83767 -0.0714,1e-5 -0.19724,-0.17715 -0.27957,-0.3937 z"
         id="path1321"
         transform="scale(0.26458333)" /><path
         style="fill:#999999;fill-opacity:1;stroke-width:0.16764"
         d="m 368.05436,241.97095 c 0,-0.65648 26.38268,-104.69975 28.44478,-112.17542 0.27196,-0.98591 0.46329,-1.19074 0.62639,-0.67056 0.4577,1.45979 9.15082,71.50303 9.15082,73.73114 0,1.07412 -0.41431,1.65108 -3.8425,5.35099 -4.82312,5.20539 -33.83508,34.11701 -34.23542,34.11701 -0.0792,0 -0.14407,-0.15892 -0.14407,-0.35316 z"
         id="path1323"
         transform="scale(0.26458333)" /><path
         style="fill:#999999;fill-opacity:1;stroke-width:0.237079"
         d="m 411.35595,199.56145 c -0.25904,-0.84609 -3.82862,-29.63401 -7.23897,-58.38076 -2.22768,-18.77774 -2.75998,-23.65027 -2.60106,-23.80919 0.31496,-0.31496 26.37386,3.36852 39.21542,5.54319 5.22502,0.88484 11.61802,2.32901 20.47048,4.62426 2.26219,0.58653 4.64505,1.13699 5.29526,1.22325 l 1.1822,0.15682 1.77816,-1.75205 c 3.84619,-3.7897 20.31665,-20.7085 38.5177,-39.566192 l 19.10681,-19.796116 24.15468,-13.513517 24.15468,-13.513516 1.65955,0.05456 c 2.69197,0.0885 7.57088,0.567689 7.77833,0.763969 0.28428,0.268977 -4.42806,3.22686 -13.82385,8.677068 -3.92149,2.274734 -20.35478,11.414619 -22.64048,12.592204 l -1.66014,0.855297 -17.54387,27.510142 c -17.42219,27.319361 -29.106,45.557981 -31.73238,49.534801 -1.19903,1.81553 -1.65642,2.27674 -3.66657,3.69716 -7.51473,5.31012 -28.11691,19.35699 -55.40239,37.77417 -25.1751,16.99272 -26.29432,17.73934 -26.59237,17.73934 -0.1563,0 -0.34133,-0.1867 -0.41119,-0.41489 z"
         id="path1349"
         transform="scale(0.26458333)" /><path
         style="fill:#999999;fill-opacity:1;stroke-width:0.16764"
         d="m 342.69549,287.46127 c -0.0464,-0.16136 -0.65267,-2.17933 -1.34735,-4.48438 -5.28905,-17.54981 -19.24165,-67.01379 -18.97748,-67.27795 0.33193,-0.33193 7.22393,6.31662 25.03964,24.15517 l 12.29726,12.31303 -1.34148,2.91567 c -6.05572,13.16199 -15.29434,32.67183 -15.4713,32.67183 -0.0633,0 -0.15294,-0.13202 -0.19929,-0.29337 z"
         id="path1351"
         transform="scale(0.26458333)" /><path
         style="fill:#999999;fill-opacity:1;stroke-width:0.16764"
         d="m 382.73778,286.79994 c -1.31027,-2.09292 -3.71395,-7.05773 -13.4962,-27.87648 -1.6672,-3.54816 -3.03127,-6.53035 -3.03127,-6.62709 0,-0.23903 37.18809,-37.38159 37.30768,-37.262 0.11702,0.11702 0.0255,0.47399 -2.46318,9.60368 -4.81186,17.65251 -17.47307,62.8767 -17.66131,63.08392 -0.0256,0.0281 -0.32063,-0.38678 -0.65572,-0.92203 z"
         id="path1353"
         transform="scale(0.26458333)" /><path
         style="fill:#999999;fill-opacity:1;stroke-width:0.237079"
         d="m 321.00529,457.46354 c -1.04315,-0.0757 -2.01562,-0.21512 -2.16103,-0.30975 -0.14542,-0.0946 -0.32604,-0.52137 -0.40137,-0.94831 -0.0753,-0.42695 -1.25419,-6.11055 -2.61968,-12.63023 -1.36548,-6.51968 -4.36801,-21.01391 -6.67228,-32.2094 l -4.18958,-20.35545 5.50882,-13.07273 c 9.6665,-22.9391 19.75841,-46.75831 22.86597,-53.96889 1.65779,-3.84661 3.23078,-7.50311 3.49555,-8.12555 0.26476,-0.62244 0.52639,-1.0867 0.58141,-1.03168 0.15857,0.15857 -1.16175,15.62588 -4.44327,52.05201 -1.03877,11.53073 -1.88868,21.13638 -1.88868,21.34591 0,0.22172 -0.66886,0.76405 -1.60028,1.29753 -9.25756,5.30242 -14.19642,14.80368 -12.84586,24.71254 0.31754,2.32976 1.60028,6.22151 2.82839,8.58121 2.38558,4.58363 3.61136,5.38489 28.516,18.63998 l 12.02542,6.40033 v 4.76299 4.76298 l -11.06312,0.15722 c -12.36241,0.17568 -25.06051,0.14809 -27.93641,-0.0607 z"
         id="path1355"
         transform="scale(0.26458333)" /><path
         style="fill:#999999;fill-opacity:1;stroke-width:0.237079"
         d="m 367.31426,457.5061 -1.58103,-0.0825 -0.17079,-1.82259 c -0.0939,-1.00242 -0.10098,-3.05144 -0.0156,-4.55338 0.13457,-2.36849 0.21953,-2.77959 0.64042,-3.09854 0.70904,-0.53731 8.2142,-4.65525 19.42217,-10.65656 15.16673,-8.12102 16.87098,-9.1576 18.46784,-11.23266 5.95346,-7.73631 7.02631,-16.84494 2.99486,-25.42671 -0.55924,-1.19046 -1.47421,-2.79074 -2.03327,-3.55619 -1.63271,-2.23543 -4.54968,-4.96286 -7.04066,-6.58315 -1.2721,-0.82746 -2.50271,-1.71669 -2.7347,-1.97608 -0.57855,-0.6469 -0.15468,3.6749 -5.38124,-54.86704 -1.84563,-20.67268 -1.74406,-19.34543 -1.45661,-19.0347 0.31884,0.34464 7.20243,16.48805 23.46086,55.02044 l 9.00757,21.34786 -4.58152,22.14659 c -3.72372,18.00007 -8.29998,39.84999 -9.10726,43.48372 l -0.15801,0.71124 -2.71751,0.14662 c -2.80774,0.15148 -34.21004,0.18001 -37.01547,0.0336 z"
         id="path1357"
         transform="scale(0.26458333)" /><path
         style="fill:#999999;fill-opacity:1;stroke-width:0.11854"
         d="m 361.24949,479.56351 c -6.0427,-2.79109 -29.47549,-14.50523 -32.24278,-16.11829 l -0.53343,-0.31093 4.38597,-0.0868 c 2.41228,-0.0477 18.01506,-0.0744 34.67284,-0.0593 l 30.28687,0.0275 -13.63206,6.8345 c -15.21745,7.62934 -20.99702,10.44254 -21.37727,10.40534 -0.0431,-0.004 -0.74518,-0.31565 -1.56014,-0.69208 z"
         id="path1359"
         transform="scale(0.26458333)" /><path
         style="fill:#999999;fill-opacity:1;stroke-width:0.335281"
         d="m 200.53412,354.72695 c -0.83599,-6.79845 -2.85053,-13.85363 -5.41493,-18.96377 -4.61895,-9.20428 -13.21788,-17.71746 -22.72327,-22.49668 l -2.65632,-1.33557 0.22366,-1.73636 c 0.90774,-7.04713 12.63039,-85.50002 12.80466,-85.69416 0.17726,-0.19745 2.93578,0.43932 11.69487,2.69963 12.41223,3.203 15.27496,4.05686 15.59284,4.65083 0.37903,0.70821 4.95124,15.15878 13.54774,42.81789 l 6.90055,22.20242 -14.86121,29.93373 -14.86121,29.93372 z"
         id="path1361"
         transform="scale(0.26458333)" /><path
         style="fill:#999999;fill-opacity:1;stroke-width:0.16764"
         d="m 202.25806,366.74202 c 0,-0.19943 2.00461,-4.50947 4.65258,-10.00339 3.49799,-7.25749 27.37843,-55.81425 27.50399,-55.92461 0.24761,-0.21764 38.87973,21.08761 41.78418,23.04359 l 0.82418,0.55503 -5.57271,3.24546 c -12.68476,7.3874 -44.17792,25.29515 -62.40278,35.4837 -6.67942,3.73411 -6.78944,3.79244 -6.78944,3.60022 z"
         id="path1363"
         transform="scale(0.26458333)" /><path
         style="fill:#999999;fill-opacity:1;stroke-width:0.16764"
         d="m 211.80741,409.73811 c -0.55218,-1.24829 -5.27424,-13.47826 -7.64059,-19.78885 -2.96906,-7.9179 -4.78085,-13.30004 -4.81529,-14.30444 l -0.0272,-0.79218 3.26899,-1.91373 c 13.69879,-8.01954 63.07835,-35.82203 68.20467,-38.4017 0.58559,-0.29469 1.1083,-0.49221 1.16157,-0.43894 0.0533,0.0533 -0.0819,0.34111 -0.30045,0.63963 -0.99793,1.36331 -49.47923,63.51206 -55.54451,71.20317 -3.03767,3.85194 -3.60962,4.52629 -3.83894,4.52629 -0.0801,0 -0.29086,-0.32816 -0.46828,-0.72925 z"
         id="path1365"
         transform="scale(0.26458333)" /><path
         style="fill:#999999;fill-opacity:1;stroke-width:0.16764"
         d="m 255.60097,445.90133 c -0.18103,-0.35673 -0.68237,-1.51614 -1.11408,-2.57646 -3.02031,-7.41827 -9.31902,-15.49371 -15.91974,-20.41037 -4.3359,-3.22966 -10.50316,-6.15068 -16.53168,-7.82995 -3.0321,-0.84461 -4.68977,-1.4077 -4.68977,-1.59308 0,-0.76559 55.84691,-72.40577 59.92356,-76.86968 l 0.61239,-0.67056 -0.10816,0.8382 c -0.30509,2.36441 -7.09384,37.24957 -14.66417,75.35433 -5.15505,25.94765 -6.814,34.04098 -7.01979,34.24677 -0.10076,0.10076 -0.28047,-0.0792 -0.48856,-0.4892 z"
         id="path1367"
         transform="scale(0.26458333)" /><path
         style="fill:#999999;fill-opacity:1;stroke-width:0.237079"
         d="m 290.35854,521.29162 c -0.54454,-0.76977 -2.20533,-3.73976 -12.43624,-22.23983 -16.28916,-29.45492 -18.96819,-34.3983 -19.07983,-35.20626 -0.26605,-1.92564 2.14354,-14.58422 16.43702,-86.35057 3.34304,-16.78512 6.15581,-30.47047 6.25059,-30.41189 0.31505,0.19471 0.74777,7.21777 2.25692,36.62967 0.59211,11.53984 1.65836,31.70342 2.36943,44.80798 3.50208,64.54086 4.96276,93.14674 4.76629,93.34321 -0.0513,0.0513 -0.3052,-0.20622 -0.56418,-0.57231 z"
         id="path1369"
         transform="scale(0.26458333)" /><path
         style="fill:#999999;fill-opacity:1;stroke-width:0.16764"
         d="m 354.30785,567.66933 c -15.01133,-8.98328 -56.04957,-34.23561 -56.70922,-34.89526 -0.47954,-0.47954 -1.11763,-9.32008 -2.54799,-35.30137 -1.14907,-20.872 -2.63113,-49.6311 -2.85523,-55.40514 -0.0501,-1.29083 -0.12606,-2.79959 -0.1688,-3.3528 l -0.0777,-1.00584 1.19944,2.34696 c 5.04752,9.87656 43.05303,87.45465 58.26912,118.94082 4.09091,8.46519 4.60046,9.56155 4.43406,9.54043 -0.0653,-0.008 -0.75994,-0.39879 -1.54366,-0.8678 z"
         id="path1371"
         transform="scale(0.26458333)" /><path
         style="fill:#999999;fill-opacity:1;stroke-width:0.16764"
         d="m 370.29577,567.25299 c 0.40481,-0.80677 7.29921,-14.89485 15.32087,-31.30684 27.94137,-57.16683 38.75212,-79.12811 44.52133,-90.44196 2.77919,-5.4502 3.55929,-6.85489 3.60166,-6.48529 0.0636,0.55502 -0.16159,5.25848 -1.40228,29.28438 -1.97512,38.24829 -3.39531,63.65934 -3.58376,64.12336 -0.0785,0.19319 -2.12492,1.5552 -4.81083,3.20182 -2.57085,1.57608 -12.63301,7.75461 -22.36034,13.73004 -25.06137,15.39506 -31.60269,19.36134 -31.93135,19.36134 -0.0502,0 0.23989,-0.66009 0.6447,-1.46685 z"
         id="path1373"
         transform="scale(0.26458333)" /><path
         style="fill:#999999;fill-opacity:1;stroke-width:0.237079"
         d="m 434.68478,521.39592 c 0,-0.2937 0.15743,-3.14754 0.34985,-6.34187 0.47887,-7.94962 2.20293,-40.13819 5.57451,-104.07719 3.35881,-63.69678 3.41469,-64.61338 3.87344,-63.53724 0.32728,0.76772 19.49743,97.31863 22.34084,112.52012 l 0.6257,3.34513 -2.90494,5.4268 c -9.65893,18.04414 -29.27045,53.19827 -29.67785,53.19827 -0.0999,0 -0.18155,-0.24031 -0.18155,-0.53402 z"
         id="path1375"
         transform="scale(0.26458333)" /><path
         style="fill:#999999;fill-opacity:1;stroke-width:0.16764"
         d="m 469.57238,446.41355 c -0.96454,-3.84306 -21.83069,-110.49256 -21.65284,-110.67041 0.18633,-0.18632 28.53589,35.89233 46.26792,58.88221 7.39853,9.59231 14.3495,18.8035 14.3495,19.01547 0,0.20533 -1.11176,0.55218 -4.05545,1.26524 -8.83425,2.13993 -16.83941,6.75252 -23.20708,13.37195 -4.40508,4.57924 -6.87737,8.40013 -10.11568,15.6336 -0.66043,1.47523 -1.26178,2.74435 -1.33632,2.82025 -0.0745,0.0759 -0.18706,-0.0673 -0.25005,-0.31831 z"
         id="path1377"
         transform="scale(0.26458333)" /><path
         style="fill:#999999;fill-opacity:1;stroke-width:0.16764"
         d="m 512.62047,409.01431 c -7.37503,-8.57444 -58.72327,-74.38725 -58.33843,-74.77209 0.25234,-0.25234 12.48157,6.56838 54.73576,30.52826 14.62491,8.29293 17.72671,10.12733 17.90353,10.58812 0.11503,0.29976 0.007,0.61978 -2.32483,6.86137 -4.20113,11.24707 -10.53849,27.47909 -10.85384,27.80018 -0.0754,0.0767 -0.58036,-0.37588 -1.12219,-1.00584 z"
         id="path1379"
         transform="scale(0.26458333)" /><path
         style="fill:#999999;fill-opacity:1;stroke-width:0.11854"
         d="m 520.08765,365.02518 c -18.34761,-10.27944 -70.99841,-40.12118 -71.28009,-40.40056 -0.0566,-0.0562 0.15421,-0.28777 0.47416,-0.52086 1.35675,-0.9884 7.45688,-4.51155 15.1565,-8.7537 7.6262,-4.2017 26.87923,-14.68364 26.90934,-14.65028 0.13197,0.14623 26.975,54.45585 29.81007,60.31263 1.55107,3.20425 2.70136,5.8748 2.58191,5.99426 -0.0228,0.0227 -1.6661,-0.86893 -3.65189,-1.98149 z"
         id="path1381"
         transform="scale(0.26458333)" /><path
         style="fill:#999999;fill-opacity:1;stroke-width:0.16764"
         d="m 523.9888,354.43567 c -2.50901,-4.59989 -28.69543,-57.25983 -28.69543,-57.70546 0,-0.2529 17.35107,-55.75621 19.47117,-62.2852 0.5539,-1.70574 1.05778,-3.15085 1.11975,-3.21136 0.47769,-0.46645 27.00041,-7.08911 27.27821,-6.8113 0.34992,0.34991 10.04155,66.15679 11.734,79.67469 0.3346,2.67248 0.62078,5.57095 0.63596,6.44105 l 0.0276,1.582 -3.01752,1.73612 c -5.39716,3.10523 -8.52346,5.37083 -11.92024,8.63848 -5.70034,5.48362 -9.98424,12.38144 -12.70491,20.45707 -1.40324,4.16516 -2.03603,7.19872 -2.26942,10.87943 -0.0798,1.25917 -0.21297,2.41055 -0.29582,2.5586 -0.11642,0.20803 -0.42623,-0.23602 -1.36336,-1.95412 z"
         id="path1383"
         transform="scale(0.26458333)" /><path
         style="fill:#dadada;fill-opacity:1;stroke-width:0.237079"
         d="m 158.31266,188.77434 c -10.54547,-13.20235 -20.4451,-25.60055 -21.99917,-27.55156 l -2.82559,-3.5473 -3.38258,-21.82018 -3.38258,-21.82019 -1.40302,-24.130432 -1.40301,-24.130434 2.67443,-7.401104 c 2.81259,-7.783464 4.92841,-13.407794 5.28065,-14.037215 0.17943,-0.320621 0.65401,-0.146375 3.27761,1.203407 5.5016,2.830451 16.98022,9.203194 36.86752,20.468247 l 3.45357,1.956262 11.47343,17.938432 c 30.08036,47.029937 36.03911,56.547467 36.30194,57.982737 0.0665,0.36307 -0.78199,0.96985 -4.30965,3.08203 -7.21216,4.31827 -10.93605,7.12407 -16.07661,12.11313 -14.10289,13.68721 -22.23614,30.55924 -24.71422,51.26838 -0.15993,1.33654 -0.37366,2.43006 -0.47496,2.43006 -0.1013,0 -8.81229,-10.80192 -19.35776,-24.00427 z"
         id="path1454"
         transform="scale(0.26458333)" /><path
         style="fill:#dadada;fill-opacity:1;stroke-width:0.237079"
         d="m 548.00719,212.38348 c -0.008,-1.02492 -1.11875,-8.24163 -1.66766,-10.8313 -1.71105,-8.07242 -4.80844,-16.46063 -8.65467,-23.43818 -6.69122,-12.13874 -17.66995,-23.34252 -30.13328,-30.75095 -4.46453,-2.65381 -5.29922,-3.24108 -5.29922,-3.72846 0,-0.20181 2.7948,-4.75719 6.21066,-10.12307 7.09519,-11.14566 33.6009,-52.570158 38.37654,-59.976871 l 3.18427,-4.938581 3.67473,-2.202948 c 11.52205,-6.907307 39.72163,-22.838708 39.97589,-22.584448 0.45967,0.459672 5.80632,14.957197 7.10886,19.275809 1.07613,3.567909 1.05885,4.643267 -0.50448,31.391595 -0.70406,12.046324 -1.11046,17.033414 -1.90298,23.352304 -1.45971,11.63852 -5.35827,36.03422 -6.28081,39.30294 -0.27686,0.98095 -4.32543,6.26142 -17.85351,23.28598 -13.9774,17.59001 -25.60854,31.93229 -26.01971,32.08472 -0.11724,0.0435 -0.21383,-0.01 -0.21463,-0.11854 z"
         id="path1456"
         transform="scale(0.26458333)" /><path
         style="fill:#dadada;fill-opacity:1;stroke-width:0.237079"
         d="m 337.86417,387.80399 -1.39621,-0.0865 0.16522,-2.41725 c 0.32648,-4.77636 6.92997,-76.77029 7.8338,-85.40718 0.29478,-2.81693 0.42175,-3.31218 1.41678,-5.52614 2.31856,-5.1588 9.08178,-19.55621 15.58319,-33.17313 0.6403,-1.3411 1.26347,-2.377 1.38482,-2.302 0.63446,0.39212 5.15436,9.67996 13.27119,27.27067 l 4.92635,10.67636 0.50123,5.08941 c 1.52862,15.5216 5.93688,63.46576 7.00747,76.21318 0.32853,3.91181 0.65827,7.72582 0.73275,8.47558 l 0.13543,1.36321 -25.0829,-0.0448 c -13.7956,-0.0247 -25.7112,-0.0838 -26.47912,-0.13135 z"
         id="path1458"
         transform="scale(0.26458333)" /><path
         style="fill:#dadada;fill-opacity:1;stroke-width:0.474158"
         d="m 349.70942,542.79291 c -32.15209,-65.7065 -46.53611,-95.20717 -52.13453,-106.92447 l -6.28756,-13.15965 -0.4207,-6.51793 c -0.23139,-3.58487 -1.17265,-20.60045 -2.09168,-37.8124 -2.13283,-39.94396 -3.08773,-54.81912 -3.57642,-55.71206 -0.21456,-0.39204 -9.95563,-5.93249 -21.64683,-12.3121 -11.69119,-6.37962 -22.68264,-12.41754 -24.42543,-13.4176 l -3.16871,-1.81829 -2.85919,-8.63077 c -1.57255,-4.74693 -6.18852,-19.29934 -10.25771,-32.3387 -4.06919,-13.03936 -7.78142,-24.57472 -8.24938,-25.63413 l -0.85086,-1.92621 -13.93515,-3.62024 c -7.66433,-1.99113 -14.52192,-3.76127 -15.23908,-3.93364 -1.2483,-0.30002 -1.30355,-0.43765 -1.29468,-3.22548 0.0139,-4.36469 1.21987,-12.59438 2.57401,-17.56499 5.64086,-20.70572 19.86267,-38.37181 38.79124,-48.1858 l 3.14672,-1.6315 9.15238,6.20193 c 5.03381,3.41107 22.48809,15.22669 38.78729,26.25694 40.65463,27.51245 38.28922,25.82783 38.8027,27.63482 0.23937,0.84236 4.74976,16.8943 10.02308,35.67097 5.27333,18.77668 10.70319,38.1083 12.06637,42.95916 l 2.47851,8.81974 -11.06562,26.26799 c -6.08609,14.44739 -15.00993,35.71089 -19.83076,47.25223 l -8.76514,20.98424 3.3391,16.47427 c 1.8365,9.06086 5.09284,25.11581 7.23631,35.67769 l 3.8972,19.20342 23.10604,11.61688 23.10603,11.61689 0.003,39.23661 c 0.002,21.58014 -0.056,39.23661 -0.12835,39.23661 -0.0723,0 -4.69943,-9.33499 -10.2824,-20.74443 z M 318.39741,299.90523 c 0.52158,-0.52157 0.94832,-1.30308 0.94832,-1.73668 0,-1.02212 -9.23316,-18.33558 -23.87997,-44.77827 l -1.73343,-3.12945 -15.28719,-7.0022 c -36.79201,-16.85236 -36.979,-16.92279 -38.14914,-14.36894 -0.41786,0.912 -0.0526,1.9133 2.3819,6.52999 3.80426,7.21417 18.01226,33.27307 22.28605,40.87485 l 3.38686,6.0242 4.51595,1.85839 c 2.48377,1.02211 9.42349,3.73187 15.42159,6.02169 5.99811,2.28982 14.63964,5.61241 19.20342,7.38354 4.56377,1.77113 8.67117,3.23171 9.12755,3.24572 0.45638,0.014 1.25652,-0.40126 1.77809,-0.92284 z"
         id="path1460"
         transform="scale(0.26458333)" /><path
         style="fill:#dadada;fill-opacity:1;stroke-width:0.474158"
         d="m 365.81326,524.27872 v -38.97413 l 12.92082,-6.4453 c 20.34481,-10.14861 32.19575,-16.45838 32.86032,-17.49575 0.33672,-0.52562 3.61838,-15.67828 7.29258,-33.6726 3.67419,-17.99431 6.87176,-33.65273 7.10571,-34.79649 0.29888,-1.46124 0.24467,-2.5891 -0.18233,-3.79327 -0.33423,-0.94254 -8.51145,-20.59707 -18.1716,-43.67673 -9.66015,-23.07967 -18.24846,-43.67 -19.08514,-45.7563 l -1.52123,-3.79326 0.82879,-3.31911 c 2.30774,-9.24197 20.89435,-75.04321 23.55909,-83.40508 0.46128,-1.44746 1.31512,-2.38395 3.92558,-4.30553 4.76906,-3.51055 37.40541,-25.78057 61.95377,-42.27532 l 20.96534,-14.08721 3.39898,1.74973 c 10.42479,5.36647 20.96348,14.94429 28.13109,25.56623 4.98738,7.39097 9.44969,17.98755 11.20306,26.60373 0.67696,3.32665 1.8985,15.92617 1.56915,16.18501 -0.0715,0.0562 -5.6776,1.5331 -12.45807,3.28205 -14.9613,3.85912 -18.13996,4.86044 -18.68341,5.8855 -0.2302,0.43422 -3.11927,9.43103 -6.42015,19.99291 -3.30088,10.56188 -8.0505,25.53207 -10.55471,33.26709 l -4.55311,14.06366 -4.55055,2.58902 c -4.37036,2.48649 -30.90204,16.98219 -40.44172,22.0955 -5.46806,2.9309 -4.8089,0.67509 -5.83577,19.97148 -1.23496,23.20674 -4.02453,73.99106 -4.32354,78.7103 -0.35035,5.52966 0.67288,3.21107 -20.92536,47.41585 -39.37841,80.5952 -47.19527,96.51874 -47.58864,96.9417 -0.24275,0.26099 -0.41895,-15.94146 -0.41895,-38.52368 z m 66.38219,-232.06311 c 11.86581,-4.45221 22.44397,-8.4673 23.50701,-8.92242 1.89324,-0.81056 2.2112,-1.33705 15.53754,-25.72763 7.48261,-13.69508 13.84081,-25.57729 14.12932,-26.40492 0.79518,-2.28104 -0.11853,-4.00494 -1.93061,-3.64253 -1.8461,0.36922 -12.00727,4.77523 -33.46232,14.50965 l -18.01802,8.17501 -8.9945,16.672 c -4.94697,9.1696 -10.70163,19.99836 -12.78812,24.0639 l -3.79363,7.39191 0.85393,1.30327 c 0.70072,1.06944 1.08102,1.24706 2.11956,0.98998 0.6961,-0.17231 10.97402,-3.95601 22.83984,-8.40822 z"
         id="path1462"
         transform="scale(0.26458333)" /></g></g></svg>
